<?xml version="1.0" encoding="UTF-8" standalone="no"?>
<!-- Created with Inkscape (http://www.inkscape.org/) -->

<svg
   xmlns:dc="http://purl.org/dc/elements/1.1/"
   xmlns:cc="http://creativecommons.org/ns#"
   xmlns:rdf="http://www.w3.org/1999/02/22-rdf-syntax-ns#"
   xmlns:svg="http://www.w3.org/2000/svg"
   xmlns="http://www.w3.org/2000/svg"
   xmlns:xlink="http://www.w3.org/1999/xlink"
   xmlns:sodipodi="http://sodipodi.sourceforge.net/DTD/sodipodi-0.dtd"
   xmlns:inkscape="http://www.inkscape.org/namespaces/inkscape"
   width="210mm"
   height="297mm"
   viewBox="0 0 744.09448819 1052.3622047"
   id="svg2"
   version="1.1"
   inkscape:version="0.91 r13725"
   sodipodi:docname="icon.svg"
   inkscape:export-filename="C:\Users\vinic\Desktop\RAMvader-Trine-EnchantedEdition\NEW_WORKING_COPY\trunk\RAMvader-Trine-EnchantedEdition\media\icon.png"
   inkscape:export-xdpi="94.612663"
   inkscape:export-ydpi="94.612663">
  <defs
     id="defs4">
    <linearGradient
       inkscape:collect="always"
       id="linearGradient4303">
      <stop
         style="stop-color:#ff2f03;stop-opacity:1"
         offset="0"
         id="stop4305" />
      <stop
         style="stop-color:#ffff00;stop-opacity:1"
         offset="1"
         id="stop4307" />
    </linearGradient>
    <radialGradient
       inkscape:collect="always"
       xlink:href="#linearGradient4303"
       id="radialGradient4309"
       cx="370.08973"
       cy="498.43089"
       fx="370.08973"
       fy="498.43089"
       r="109.31968"
       gradientTransform="matrix(1,0,0,1.159519,0,-79.509181)"
       gradientUnits="userSpaceOnUse" />
  </defs>
  <sodipodi:namedview
     id="base"
     pagecolor="#ffffff"
     bordercolor="#666666"
     borderopacity="1.0"
     inkscape:pageopacity="0.0"
     inkscape:pageshadow="2"
     inkscape:zoom="1"
     inkscape:cx="398.98779"
     inkscape:cy="555.85421"
     inkscape:document-units="px"
     inkscape:current-layer="layer1"
     showgrid="false"
     inkscape:window-width="2560"
     inkscape:window-height="1017"
     inkscape:window-x="-8"
     inkscape:window-y="-8"
     inkscape:window-maximized="1"
     showguides="true" />
  <metadata
     id="metadata7">
    <rdf:RDF>
      <cc:Work
         rdf:about="">
        <dc:format>image/svg+xml</dc:format>
        <dc:type
           rdf:resource="http://purl.org/dc/dcmitype/StillImage" />
        <dc:title />
      </cc:Work>
    </rdf:RDF>
  </metadata>
  <g
     inkscape:label="Layer 1"
     inkscape:groupmode="layer"
     id="layer1">
    <path
       inkscape:connector-curvature="0"
       id="path4311"
       d="m 408.74373,381.67223 c -24.07017,2.91952 -41.92418,10.33908 -52.32617,23.15625 -8.08463,12.03264 -11.52052,19.4182 -12.55078,24.39648 -7.1654,5.25253 -10.26153,11.13131 -11.31445,17.32422 -5.89939,2.71818 -6.36612,7.90545 -7.24805,12.9043 -5.02932,2.41077 -8.74305,10.07987 -12.19531,18.79883 l -2.65235,-1.82813 c -11.52189,7.331 -23.05779,14.66028 -31.82031,22.45117 -13.73149,21.28409 -6.62475,28.35875 -0.17773,35.88477 l 15.20312,7.24805 6.89453,-7.07227 -0.17773,9.01562 c 6.24291,1.53013 12.71763,2.459 19.35742,2.90821 0.0877,0.44601 0.18385,0.88397 0.26562,1.33594 -1.63434,7.64718 0.23108,9.69414 0.70704,13.96484 -5.13404,16.31797 -2.81595,26.97898 0,31.99609 1.17216,-11.39168 1.97898,-23.87753 4.94921,-29.875 l -0.70703,12.9043 c -0.12135,9.81045 1.15728,18.88077 9.01563,25.45703 -1.56109,-6.83611 -4.33042,-11.60183 -2.82813,-23.68945 l 1.23828,-0.17578 c 2.00381,-2.60483 4.4483,-8.20944 5.48047,-13.61133 -4.40679,-1.81352 -5.6782,-10.18836 -6.9707,-17.98828 0.17763,-10e-4 0.35344,0.004 0.53125,0.002 0.0256,0.0437 0.0483,0.0871 0.0742,0.13086 3.18723,8.05836 7.85021,15.70816 14.38086,22.83789 0.32343,14.72491 -0.65083,30.09895 -0.76953,45.04492 1.01864,-2.71516 1.32819,-1.52249 3.18359,-8.83984 1.17683,-10.06839 1.12814,-21.36103 1.89258,-31.8418 2.44837,2.30824 5.1029,4.55829 8.00586,6.74024 3.04841,1.26513 5.98809,1.82624 8.85547,1.91406 0.22946,5.38279 0.82879,11.51134 3.34179,17.00195 -0.76767,-7.24088 -0.9425,-12.63805 -0.70312,-17.05469 4.10502,-0.27254 8.07705,-1.40525 12.01758,-2.74609 1.58522,-0.8519 3.12998,-1.71765 4.63672,-2.5957 0.32748,7.87146 0.52618,16.11286 0.84375,22.75 1.47491,3.63315 2.44285,7.96532 3.53515,10.7832 -0.24368,-11.59669 -0.52682,-23.06351 -0.38086,-35.95898 3.859,-2.43352 7.39446,-4.97443 10.60156,-7.625 0.002,0.005 0.004,0.009 0.006,0.0137 0.11903,-0.0984 0.22762,-0.20009 0.34571,-0.29883 0.60813,-0.50817 1.1969,-1.02232 1.77929,-1.53906 0.29547,-0.26217 0.59598,-0.52271 0.88477,-0.78711 0.59638,-0.54613 1.16918,-1.10037 1.73633,-1.65625 0.25055,-0.24543 0.50913,-0.48897 0.7539,-0.73633 0.6038,-0.61059 1.18015,-1.23094 1.74805,-1.85352 0.19355,-0.21202 0.40053,-0.41937 0.58985,-0.63281 0.0911,-0.10276 0.17748,-0.20747 0.26757,-0.31054 0.62914,-0.71948 1.24036,-1.44393 1.82032,-2.17969 1.02535,-3.29957 2.04437,-6.59615 3.00781,-9.875 0.0448,-0.1526 0.0921,-0.30648 0.13672,-0.45899 0.45963,1.97226 0.68849,3.94385 0.39258,5.91602 0.40129,3.8312 0.70703,9.01562 0.70703,9.01562 1.94915,2.96722 1.26669,5.22056 1.23632,7.60157 l -0.70703,15.9082 c 0.53383,7.8562 1.28319,15.98343 0,21.56836 l 1.5918,4.94922 1.94336,-9.19336 c 0.49722,-7.20209 -0.50868,-14.61765 3.00586,-21.38867 1.22033,5.57321 0.85814,14.31281 1.23828,21.5664 1.00747,-9.71861 2.4298,-14.86022 3.00391,-29.3457 0.16422,3.33121 0.83842,5.3907 1.94531,6.36523 -0.48866,-8.70909 -0.0952,-16.31388 0.49219,-23.67773 0.40635,-5.0939 0.90286,-10.07663 1.27539,-15.21289 -1.44134,-4.28924 -2.11704,-7.68673 -2.44727,-10.67969 0.92534,-0.20729 1.88332,-0.43271 2.80078,-0.63476 0,0 6.00785,-2.27978 10.51367,-4.29102 0.90025,-0.40192 1.74051,-0.79211 2.46094,-1.15234 0,0 0.002,-0.002 0.002,-0.002 0.71974,-0.35992 1.32021,-0.6892 1.74023,-0.96679 0,0 0.002,-0.002 0.002,-0.002 0.20933,-0.13836 0.37373,-0.26269 0.48633,-0.37304 l 0.002,-0.002 c 0.0559,-0.0549 0.0979,-0.1053 0.12696,-0.15234 0,0 0,-0.002 0,-0.002 0.0287,-0.0467 0.0445,-0.0887 0.0449,-0.12696 l 0,-0.002 c 0,-0.61831 -0.0894,-1.7225 -0.17774,-2.67187 0,0 0,-0.002 0,-0.002 -0.0884,-0.94981 -0.17578,-1.74414 -0.17578,-1.74414 l 4.24414,3.71094 c 0.002,-10e-4 1.00051,-0.88055 2.51758,-2.35742 0.0398,-0.0387 0.0572,-0.0522 0.0977,-0.0918 l 0.002,-0.002 c 1.19006,-1.16261 2.69137,-2.68958 4.30664,-4.47852 3.23055,-3.57788 6.91153,-8.19754 9.43945,-13.01758 0.42134,-0.80334 0.81028,-1.61327 1.16016,-2.42383 0.34963,-0.80997 0.66035,-1.62224 0.92383,-2.43164 0,0 0,-0.002 0,-0.002 0.1318,-0.40498 0.25193,-0.80756 0.35937,-1.21094 0.10745,-0.40337 0.20392,-0.80623 0.28516,-1.20703 0.24859,-1.22639 0.40523,-2.50286 0.48828,-3.80859 0.0277,-0.43525 0.0471,-0.87337 0.0586,-1.31445 0.0459,-1.76433 -0.0332,-3.56902 -0.20313,-5.36719 -0.67975,-7.1927 -2.80577,-14.27494 -4.14844,-18.19727 -0.67115,-1.96116 -1.14648,-3.13281 -1.14648,-3.13281 l -7.24805,3.35937 6.36524,-7.77929 -5.48047,-14.67188 c 0,0 -0.1639,-0.19444 -0.4043,-0.45898 -0.11704,-0.12881 -0.26335,-0.27921 -0.43359,-0.44727 -0.0965,-0.0952 -0.1703,-0.17144 -0.28321,-0.27539 -0.006,-0.006 -0.013,-0.0136 -0.0195,-0.0195 -0.0726,-0.0666 -0.1513,-0.13396 -0.23047,-0.20312 -0.22963,-0.20059 -0.47906,-0.40702 -0.76171,-0.61719 -0.0229,-0.017 -0.0412,-0.0338 -0.0645,-0.0508 l -0.002,0 c -0.30947,-0.2267 -0.65994,-0.44934 -1.02735,-0.66407 -0.13517,-0.0789 -0.27139,-0.15717 -0.41406,-0.23242 -0.0871,-0.046 -0.17183,-0.0924 -0.26172,-0.13672 -0.27283,-0.13433 -0.5542,-0.26305 -0.85156,-0.37695 -0.60886,-0.23348 -1.27216,-0.40696 -1.97656,-0.50976 -1.59306,-0.23251 -3.41259,-0.0624 -5.41211,0.8789 -0.48041,0.22616 -0.97091,0.49545 -1.4707,0.81445 -1.20183,0.76714 -3.19315,1.59852 -5.71875,2.45704 0,0 -0.002,0 -0.002,0 -1.68382,0.57232 -3.60535,1.15651 -5.68945,1.74414 0,0 -0.002,0 -0.002,0 -1.04188,0.29362 -2.12459,0.58914 -3.23828,0.88281 -2.22806,0.5877 -4.58163,1.17346 -6.98438,1.74609 -1.31851,-2.08137 -2.63745,-4.16531 -3.96484,-6.2207 -0.23046,-0.35698 -0.46222,-0.70956 -0.69336,-1.06445 -0.3972,-0.60962 -0.79554,-1.21643 -1.19532,-1.81836 -0.2824,-0.42541 -0.56564,-0.84684 -0.8496,-1.26758 -0.38296,-0.56716 -0.76803,-1.12833 -1.1543,-1.68555 -0.31595,-0.45598 -0.63267,-0.90912 -0.95117,-1.35742 -0.34141,-0.48032 -0.68654,-0.95147 -1.03125,-1.42187 -0.34476,-0.47066 -0.69062,-0.94081 -1.03907,-1.40039 -0.37765,-0.49796 -0.76014,-0.97933 -1.14257,-1.4629 -0.31074,-0.39303 -0.6194,-0.79311 -0.9336,-1.17578 -0.60452,-0.73608 -1.21532,-1.44707 -1.83398,-2.14062 -0.0969,-0.10863 -0.1918,-0.22648 -0.28906,-0.33399 l 0,-0.002 c -0.77198,-0.85325 -1.55595,-1.67071 -2.35352,-2.44726 0,0 0,-0.002 0,-0.002 0.11063,-0.22148 0.24044,-0.43745 0.38867,-0.65039 0.14872,-0.21364 0.3149,-0.42289 0.49805,-0.63086 0.18213,-0.20695 0.38092,-0.41103 0.59375,-0.61523 0.21326,-0.20458 0.44097,-0.40856 0.68164,-0.61328 1.92509,-1.63761 4.67104,-3.32766 7.36914,-5.8086 0.33726,-0.31014 0.67379,-0.63239 1.00781,-0.96875 0.172,-0.17318 0.34127,-0.3603 0.51172,-0.54101 0.16063,-0.17029 0.32357,-0.33245 0.48242,-0.50977 0,0 0,-0.002 0,-0.002 0.14994,-0.16738 0.29534,-0.34952 0.44336,-0.52344 0.49756,-0.58462 0.98917,-1.19393 1.45703,-1.85937 -0.13616,1.14777 -0.305,2.29562 -0.49023,3.44335 -0.55631,3.44707 -1.25902,6.89289 -1.6582,10.33985 -0.13307,1.14899 -0.2323,2.29827 -0.28125,3.44726 -0.0734,1.72284 -0.0336,3.44706 0.17578,5.16993 0,0 0,0.002 0,0.002 0.13963,1.14839 0.35523,2.2969 0.66211,3.44531 0,0 0,0.002 0,0.002 0.15357,0.57451 0.32957,1.14813 0.53125,1.72265 0,0 0.002,-0.002 0.002,-0.002 0.8015,-1.67014 1.64799,-3.21345 2.48242,-4.79102 0.8347,-1.57807 1.65655,-3.1911 2.41016,-4.99609 0.37701,-0.90301 0.73696,-1.85324 1.07226,-2.87305 0.16763,-0.50963 0.32984,-1.03574 0.48438,-1.58203 0.15464,-0.54679 0.30167,-1.11265 0.4414,-1.70117 0.0299,-0.12595 0.0548,-0.26458 0.084,-0.39258 0.37954,-1.66449 0.70063,-3.49125 0.93555,-5.56055 0.0843,-0.74279 0.15838,-1.51394 0.2207,-2.31836 0,0 0,-0.002 0,-0.002 -0.66087,-2.14491 -1.32153,-4.17529 -1.98242,-6.14844 -0.0567,-0.16906 -0.11326,-0.3595 -0.16992,-0.52734 -0.10431,-0.30918 -0.2082,-0.58267 -0.3125,-0.88672 -0.43386,-1.26707 -0.86692,-2.49809 -1.30079,-3.6875 -0.0635,-0.17382 -0.12794,-0.36663 -0.1914,-0.53906 -0.12336,-0.33482 -0.24774,-0.68137 -0.3711,-1.00977 -0.0831,-0.2216 -0.16685,-0.43368 -0.25,-0.65234 -0.0109,-0.0286 -0.0223,-0.0554 -0.0332,-0.084 -0.15983,-0.41915 -0.31869,-0.82616 -0.47851,-1.23437 -0.12748,-0.32765 -0.25532,-0.66577 -0.38282,-0.98437 -0.009,-0.0231 -0.0181,-0.0453 -0.0273,-0.0684 -0.0167,-0.0418 -0.034,-0.0794 -0.0508,-0.1211 -0.18057,-0.44921 -0.36081,-0.87269 -0.54102,-1.30859 -0.14317,-0.34486 -0.28652,-0.70326 -0.42968,-1.03906 -0.0215,-0.0506 -0.0429,-0.10589 -0.0645,-0.15625 -0.005,-0.0105 -0.009,-0.0207 -0.0137,-0.0312 -0.007,-0.0168 -0.0143,-0.032 -0.0215,-0.0488 -0.34817,-0.81167 -0.69675,-1.59602 -1.04493,-2.35352 -0.0271,-0.0589 -0.053,-0.11717 -0.0801,-0.17578 -0.049,-0.10592 -0.0975,-0.20186 -0.14649,-0.30664 -0.11513,-0.24639 -0.23057,-0.48038 -0.3457,-0.7207 -0.16855,-0.35167 -0.33732,-0.71569 -0.50586,-1.05469 -0.0189,-0.038 -0.0377,-0.0755 -0.0566,-0.11328 -0.003,0.001 -0.0167,0.007 -0.0195,0.008 -1.33707,-2.67128 -2.67274,-4.97711 -4.00977,-6.78516 -0.007,-0.01 -0.0143,-0.0215 -0.0215,-0.0312 -0.002,-0.002 -0.004,-0.004 -0.006,-0.006 -1.25322,-1.6889 -2.50656,-3.0032 -3.75977,-3.87305 z"
       style="fill:none;fill-opacity:1;fill-rule:evenodd;stroke:#000000;stroke-width:15;stroke-linecap:round;stroke-linejoin:round;stroke-miterlimit:4;stroke-dasharray:none;stroke-opacity:1" />
    <path
       style="fill:none;fill-opacity:1;fill-rule:evenodd;stroke:url(#radialGradient4309);stroke-width:10;stroke-linecap:round;stroke-linejoin:round;stroke-miterlimit:4;stroke-dasharray:none;stroke-opacity:1"
       d="m 408.74373,381.67223 c -24.07017,2.91952 -41.92418,10.33908 -52.32617,23.15625 -8.08463,12.03264 -11.52052,19.4182 -12.55078,24.39648 -7.1654,5.25253 -10.26153,11.13131 -11.31445,17.32422 -5.89939,2.71818 -6.36612,7.90545 -7.24805,12.9043 -5.02932,2.41077 -8.74305,10.07987 -12.19531,18.79883 l -2.65235,-1.82813 c -11.52189,7.331 -23.05779,14.66028 -31.82031,22.45117 -13.73149,21.28409 -6.62475,28.35875 -0.17773,35.88477 l 15.20312,7.24805 6.89453,-7.07227 -0.17773,9.01562 c 6.24291,1.53013 12.71763,2.459 19.35742,2.90821 0.0877,0.44601 0.18385,0.88397 0.26562,1.33594 -1.63434,7.64718 0.23108,9.69414 0.70704,13.96484 -5.13404,16.31797 -2.81595,26.97898 0,31.99609 1.17216,-11.39168 1.97898,-23.87753 4.94921,-29.875 l -0.70703,12.9043 c -0.12135,9.81045 1.15728,18.88077 9.01563,25.45703 -1.56109,-6.83611 -4.33042,-11.60183 -2.82813,-23.68945 l 1.23828,-0.17578 c 2.00381,-2.60483 4.4483,-8.20944 5.48047,-13.61133 -4.40679,-1.81352 -5.6782,-10.18836 -6.9707,-17.98828 0.17763,-10e-4 0.35344,0.004 0.53125,0.002 0.0256,0.0437 0.0483,0.0871 0.0742,0.13086 3.18723,8.05836 7.85021,15.70816 14.38086,22.83789 0.32343,14.72491 -0.65083,30.09895 -0.76953,45.04492 1.01864,-2.71516 1.32819,-1.52249 3.18359,-8.83984 1.17683,-10.06839 1.12814,-21.36103 1.89258,-31.8418 2.44837,2.30824 5.1029,4.55829 8.00586,6.74024 3.04841,1.26513 5.98809,1.82624 8.85547,1.91406 0.22946,5.38279 0.82879,11.51134 3.34179,17.00195 -0.76767,-7.24088 -0.9425,-12.63805 -0.70312,-17.05469 4.10502,-0.27254 8.07705,-1.40525 12.01758,-2.74609 1.58522,-0.8519 3.12998,-1.71765 4.63672,-2.5957 0.32748,7.87146 0.52618,16.11286 0.84375,22.75 1.47491,3.63315 2.44285,7.96532 3.53515,10.7832 -0.24368,-11.59669 -0.52682,-23.06351 -0.38086,-35.95898 3.859,-2.43352 7.39446,-4.97443 10.60156,-7.625 0.002,0.005 0.004,0.009 0.006,0.0137 0.11903,-0.0984 0.22762,-0.20009 0.34571,-0.29883 0.60813,-0.50817 1.1969,-1.02232 1.77929,-1.53906 0.29547,-0.26217 0.59598,-0.52271 0.88477,-0.78711 0.59638,-0.54613 1.16918,-1.10037 1.73633,-1.65625 0.25055,-0.24543 0.50913,-0.48897 0.7539,-0.73633 0.6038,-0.61059 1.18015,-1.23094 1.74805,-1.85352 0.19355,-0.21202 0.40053,-0.41937 0.58985,-0.63281 0.0911,-0.10276 0.17748,-0.20747 0.26757,-0.31054 0.62914,-0.71948 1.24036,-1.44393 1.82032,-2.17969 1.02535,-3.29957 2.04437,-6.59615 3.00781,-9.875 0.0448,-0.1526 0.0921,-0.30648 0.13672,-0.45899 0.45963,1.97226 0.68849,3.94385 0.39258,5.91602 0.40129,3.8312 0.70703,9.01562 0.70703,9.01562 1.94915,2.96722 1.26669,5.22056 1.23632,7.60157 l -0.70703,15.9082 c 0.53383,7.8562 1.28319,15.98343 0,21.56836 l 1.5918,4.94922 1.94336,-9.19336 c 0.49722,-7.20209 -0.50868,-14.61765 3.00586,-21.38867 1.22033,5.57321 0.85814,14.31281 1.23828,21.5664 1.00747,-9.71861 2.4298,-14.86022 3.00391,-29.3457 0.16422,3.33121 0.83842,5.3907 1.94531,6.36523 -0.48866,-8.70909 -0.0952,-16.31388 0.49219,-23.67773 0.40635,-5.0939 0.90286,-10.07663 1.27539,-15.21289 -1.44134,-4.28924 -2.11704,-7.68673 -2.44727,-10.67969 0.92534,-0.20729 1.88332,-0.43271 2.80078,-0.63476 0,0 6.00785,-2.27978 10.51367,-4.29102 0.90025,-0.40192 1.74051,-0.79211 2.46094,-1.15234 0,0 0.002,-0.002 0.002,-0.002 0.71974,-0.35992 1.32021,-0.6892 1.74023,-0.96679 0,0 0.002,-0.002 0.002,-0.002 0.20933,-0.13836 0.37373,-0.26269 0.48633,-0.37304 l 0.002,-0.002 c 0.0559,-0.0549 0.0979,-0.1053 0.12696,-0.15234 0,0 0,-0.002 0,-0.002 0.0287,-0.0467 0.0445,-0.0887 0.0449,-0.12696 l 0,-0.002 c 0,-0.61831 -0.0894,-1.7225 -0.17774,-2.67187 0,0 0,-0.002 0,-0.002 -0.0884,-0.94981 -0.17578,-1.74414 -0.17578,-1.74414 l 4.24414,3.71094 c 0.002,-10e-4 1.00051,-0.88055 2.51758,-2.35742 0.0398,-0.0387 0.0572,-0.0522 0.0977,-0.0918 l 0.002,-0.002 c 1.19006,-1.16261 2.69137,-2.68958 4.30664,-4.47852 3.23055,-3.57788 6.91153,-8.19754 9.43945,-13.01758 0.42134,-0.80334 0.81028,-1.61327 1.16016,-2.42383 0.34963,-0.80997 0.66035,-1.62224 0.92383,-2.43164 0,0 0,-0.002 0,-0.002 0.1318,-0.40498 0.25193,-0.80756 0.35937,-1.21094 0.10745,-0.40337 0.20392,-0.80623 0.28516,-1.20703 0.24859,-1.22639 0.40523,-2.50286 0.48828,-3.80859 0.0277,-0.43525 0.0471,-0.87337 0.0586,-1.31445 0.0459,-1.76433 -0.0332,-3.56902 -0.20313,-5.36719 -0.67975,-7.1927 -2.80577,-14.27494 -4.14844,-18.19727 -0.67115,-1.96116 -1.14648,-3.13281 -1.14648,-3.13281 l -7.24805,3.35937 6.36524,-7.77929 -5.48047,-14.67188 c 0,0 -0.1639,-0.19444 -0.4043,-0.45898 -0.11704,-0.12881 -0.26335,-0.27921 -0.43359,-0.44727 -0.0965,-0.0952 -0.1703,-0.17144 -0.28321,-0.27539 -0.006,-0.006 -0.013,-0.0136 -0.0195,-0.0195 -0.0726,-0.0666 -0.1513,-0.13396 -0.23047,-0.20312 -0.22963,-0.20059 -0.47906,-0.40702 -0.76171,-0.61719 -0.0229,-0.017 -0.0412,-0.0338 -0.0645,-0.0508 l -0.002,0 c -0.30947,-0.2267 -0.65994,-0.44934 -1.02735,-0.66407 -0.13517,-0.0789 -0.27139,-0.15717 -0.41406,-0.23242 -0.0871,-0.046 -0.17183,-0.0924 -0.26172,-0.13672 -0.27283,-0.13433 -0.5542,-0.26305 -0.85156,-0.37695 -0.60886,-0.23348 -1.27216,-0.40696 -1.97656,-0.50976 -1.59306,-0.23251 -3.41259,-0.0624 -5.41211,0.8789 -0.48041,0.22616 -0.97091,0.49545 -1.4707,0.81445 -1.20183,0.76714 -3.19315,1.59852 -5.71875,2.45704 0,0 -0.002,0 -0.002,0 -1.68382,0.57232 -3.60535,1.15651 -5.68945,1.74414 0,0 -0.002,0 -0.002,0 -1.04188,0.29362 -2.12459,0.58914 -3.23828,0.88281 -2.22806,0.5877 -4.58163,1.17346 -6.98438,1.74609 -1.31851,-2.08137 -2.63745,-4.16531 -3.96484,-6.2207 -0.23046,-0.35698 -0.46222,-0.70956 -0.69336,-1.06445 -0.3972,-0.60962 -0.79554,-1.21643 -1.19532,-1.81836 -0.2824,-0.42541 -0.56564,-0.84684 -0.8496,-1.26758 -0.38296,-0.56716 -0.76803,-1.12833 -1.1543,-1.68555 -0.31595,-0.45598 -0.63267,-0.90912 -0.95117,-1.35742 -0.34141,-0.48032 -0.68654,-0.95147 -1.03125,-1.42187 -0.34476,-0.47066 -0.69062,-0.94081 -1.03907,-1.40039 -0.37765,-0.49796 -0.76014,-0.97933 -1.14257,-1.4629 -0.31074,-0.39303 -0.6194,-0.79311 -0.9336,-1.17578 -0.60452,-0.73608 -1.21532,-1.44707 -1.83398,-2.14062 -0.0969,-0.10863 -0.1918,-0.22648 -0.28906,-0.33399 l 0,-0.002 c -0.77198,-0.85325 -1.55595,-1.67071 -2.35352,-2.44726 0,0 0,-0.002 0,-0.002 0.11063,-0.22148 0.24044,-0.43745 0.38867,-0.65039 0.14872,-0.21364 0.3149,-0.42289 0.49805,-0.63086 0.18213,-0.20695 0.38092,-0.41103 0.59375,-0.61523 0.21326,-0.20458 0.44097,-0.40856 0.68164,-0.61328 1.92509,-1.63761 4.67104,-3.32766 7.36914,-5.8086 0.33726,-0.31014 0.67379,-0.63239 1.00781,-0.96875 0.172,-0.17318 0.34127,-0.3603 0.51172,-0.54101 0.16063,-0.17029 0.32357,-0.33245 0.48242,-0.50977 0,0 0,-0.002 0,-0.002 0.14994,-0.16738 0.29534,-0.34952 0.44336,-0.52344 0.49756,-0.58462 0.98917,-1.19393 1.45703,-1.85937 -0.13616,1.14777 -0.305,2.29562 -0.49023,3.44335 -0.55631,3.44707 -1.25902,6.89289 -1.6582,10.33985 -0.13307,1.14899 -0.2323,2.29827 -0.28125,3.44726 -0.0734,1.72284 -0.0336,3.44706 0.17578,5.16993 0,0 0,0.002 0,0.002 0.13963,1.14839 0.35523,2.2969 0.66211,3.44531 0,0 0,0.002 0,0.002 0.15357,0.57451 0.32957,1.14813 0.53125,1.72265 0,0 0.002,-0.002 0.002,-0.002 0.8015,-1.67014 1.64799,-3.21345 2.48242,-4.79102 0.8347,-1.57807 1.65655,-3.1911 2.41016,-4.99609 0.37701,-0.90301 0.73696,-1.85324 1.07226,-2.87305 0.16763,-0.50963 0.32984,-1.03574 0.48438,-1.58203 0.15464,-0.54679 0.30167,-1.11265 0.4414,-1.70117 0.0299,-0.12595 0.0548,-0.26458 0.084,-0.39258 0.37954,-1.66449 0.70063,-3.49125 0.93555,-5.56055 0.0843,-0.74279 0.15838,-1.51394 0.2207,-2.31836 0,0 0,-0.002 0,-0.002 -0.66087,-2.14491 -1.32153,-4.17529 -1.98242,-6.14844 -0.0567,-0.16906 -0.11326,-0.3595 -0.16992,-0.52734 -0.10431,-0.30918 -0.2082,-0.58267 -0.3125,-0.88672 -0.43386,-1.26707 -0.86692,-2.49809 -1.30079,-3.6875 -0.0635,-0.17382 -0.12794,-0.36663 -0.1914,-0.53906 -0.12336,-0.33482 -0.24774,-0.68137 -0.3711,-1.00977 -0.0831,-0.2216 -0.16685,-0.43368 -0.25,-0.65234 -0.0109,-0.0286 -0.0223,-0.0554 -0.0332,-0.084 -0.15983,-0.41915 -0.31869,-0.82616 -0.47851,-1.23437 -0.12748,-0.32765 -0.25532,-0.66577 -0.38282,-0.98437 -0.009,-0.0231 -0.0181,-0.0453 -0.0273,-0.0684 -0.0167,-0.0418 -0.034,-0.0794 -0.0508,-0.1211 -0.18057,-0.44921 -0.36081,-0.87269 -0.54102,-1.30859 -0.14317,-0.34486 -0.28652,-0.70326 -0.42968,-1.03906 -0.0215,-0.0506 -0.0429,-0.10589 -0.0645,-0.15625 -0.005,-0.0105 -0.009,-0.0207 -0.0137,-0.0312 -0.007,-0.0168 -0.0143,-0.032 -0.0215,-0.0488 -0.34817,-0.81167 -0.69675,-1.59602 -1.04493,-2.35352 -0.0271,-0.0589 -0.053,-0.11717 -0.0801,-0.17578 -0.049,-0.10592 -0.0975,-0.20186 -0.14649,-0.30664 -0.11513,-0.24639 -0.23057,-0.48038 -0.3457,-0.7207 -0.16855,-0.35167 -0.33732,-0.71569 -0.50586,-1.05469 -0.0189,-0.038 -0.0377,-0.0755 -0.0566,-0.11328 -0.003,0.001 -0.0167,0.007 -0.0195,0.008 -1.33707,-2.67128 -2.67274,-4.97711 -4.00977,-6.78516 -0.007,-0.01 -0.0143,-0.0215 -0.0215,-0.0312 -0.002,-0.002 -0.004,-0.004 -0.006,-0.006 -1.25322,-1.6889 -2.50656,-3.0032 -3.75977,-3.87305 z"
       id="path4188"
       inkscape:connector-curvature="0" />
    <g
       id="g4247"
       sodipodi:insensitive="true">
      <path
         sodipodi:nodetypes="cccccccccccccc"
         inkscape:connector-curvature="0"
         id="path4189"
         d="m 429.39059,460.16027 c -8.30632,-11.73272 -15.70171,-26.19826 -24.92551,-35.17856 1.77003,-3.54376 8.57257,-5.80952 13.43503,-12.72792 -1.08994,9.19239 -4.28749,18.38477 -1.06066,27.57716 3.20693,-6.68302 7.13468,-11.34772 8.13173,-24.2184 -5.539,-17.97723 -11.07801,-30.09649 -16.61701,-33.94113 -24.07017,2.91952 -41.92392,10.34058 -52.32591,23.15775 -8.08463,12.03264 -11.52088,19.4169 -12.55114,24.39518 -7.1654,5.25253 -10.26079,11.13121 -11.31371,17.32412 -5.89939,2.71818 -6.36591,7.90585 -7.24784,12.9047 -5.72241,2.743 -9.74352,12.29116 -13.61181,22.45064 0.44396,3.36973 -1.53135,7.70718 3.18198,9.36916 44.77672,9.42346 99.00107,0.83673 124.27402,-13.96536 z"
         style="fill:#00ffff;fill-opacity:1;fill-rule:evenodd;stroke:#000000;stroke-width:1px;stroke-linecap:round;stroke-linejoin:round;stroke-opacity:1" />
      <path
         sodipodi:nodetypes="csccsccccscccccccccc"
         inkscape:connector-curvature="0"
         id="path4187"
         d="m 430.0977,530.16385 c 0,0 15.37957,-5.83364 15.37957,-7.07107 0,-1.23744 -0.35355,-4.41942 -0.35355,-4.41942 l 4.24264,3.71231 c 0,0 16.49213,-14.39819 19.09188,-27.22361 2.65166,-13.08148 -4.94974,-31.81981 -4.94974,-31.81981 l -7.24785,3.35876 6.36396,-7.77817 -5.48008,-14.67247 c 0,0 -5.61514,-7.40236 -13.6118,-2.2981 -8.3085,5.30331 -54.27045,13.61181 -54.27045,13.61181 -25.23988,2.14324 -48.53485,7.93319 -70.00357,17.14734 l -1.23743,9.19239 -7.95496,-5.48008 c -11.52189,7.331 -23.05728,14.65975 -31.8198,22.45064 -13.73149,21.28409 -6.6238,28.35965 -0.17678,35.88567 l 15.2028,7.24784 6.89429,-7.07106 -0.17678,9.01561 c 39.58687,9.70265 88.45314,-4.61508 130.10765,-13.78858 z"
         style="fill:#007f8e;fill-opacity:1;fill-rule:evenodd;stroke:#686800;stroke-width:1px;stroke-linecap:round;stroke-linejoin:round;stroke-opacity:1" />
      <path
         sodipodi:nodetypes="cccccccccc"
         inkscape:connector-curvature="0"
         id="path4245"
         d="m 361.79388,554.62362 c 7.42192,0.24355 13.91283,-1.65228 20.33678,-4.00798 0.006,-0.82646 -0.41111,-0.96347 1.03911,-1.38548 0.043,-0.64732 -0.50369,-1.16359 -1.03911,-1.68236 0.0143,-0.36661 -0.18887,-0.52929 1.08859,-0.64325 1.41257,3.0888 0.62253,4.11778 0.39585,4.79967 -0.88589,0.0366 -0.71501,-0.44083 -1.73184,-0.14844 -4.60813,1.50615 -8.77767,2.75966 -12.17239,3.31525 l -7.32323,0.2474 c -0.47727,-0.0252 -0.49274,-0.28143 -0.59376,-0.49481 z"
         style="fill:#333333;fill-opacity:1;fill-rule:evenodd;stroke:none;stroke-width:1px;stroke-linecap:round;stroke-linejoin:round;stroke-opacity:1" />
      <path
         sodipodi:nodetypes="cccc"
         inkscape:connector-curvature="0"
         id="path4249"
         d="m 352.91199,555.16791 c 1.69339,-0.46492 2.05396,-0.42397 3.73583,0.099 -0.14613,0.4757 -1.20854,0.46272 -2.32561,0.42058 -0.64501,-0.0177 -1.33954,0.008 -1.41022,-0.51955 z"
         style="fill:#333333;fill-rule:evenodd;stroke:#333333;stroke-width:0.39585px;stroke-linecap:butt;stroke-linejoin:miter;stroke-opacity:1" />
      <path
         sodipodi:nodetypes="cccccccccc"
         inkscape:connector-curvature="0"
         id="path4211"
         d="m 331.10275,547.31119 c 4.91261,12.42069 13.30174,23.87569 26.69328,33.94112 8.42003,3.49443 16.02098,1.66484 23.5113,-0.88388 12.38418,-6.65532 22.43683,-14.08782 29.16816,-22.62742 2.66236,-8.56742 5.42501,-17.16827 6.71751,-25.27907 L 405.52574,497.81371 378.47891,484.2019 c -15.89851,-0.59916 -29.99841,0.96002 -41.18897,6.01041 l -9.01562,22.09709 c -0.82814,11.56888 -4.29277,22.99128 2.82843,35.00179 z"
         style="fill:#ffb380;fill-opacity:1;fill-rule:evenodd;stroke:none;stroke-width:1px;stroke-linecap:butt;stroke-linejoin:miter;stroke-opacity:1" />
      <path
         sodipodi:nodetypes="cccc"
         inkscape:connector-curvature="0"
         id="path4217"
         d="m 335,498.6122 c 11.06497,-0.60996 20.3324,1.29869 26.75,6 -11.81644,-4.71622 -21.06293,-4.04252 -30.25,-3.5 z"
         style="fill:#ececec;fill-opacity:1;fill-rule:evenodd;stroke:none;stroke-width:1px;stroke-linecap:butt;stroke-linejoin:miter;stroke-opacity:1" />
      <g
         style="stroke:#000000"
         id="g4336"
         transform="matrix(1.6409678,-0.28658651,0.28658651,1.6409678,-1536.5333,298.20955)">
        <path
           sodipodi:nodetypes="cccccccccccccccc"
           inkscape:connector-curvature="0"
           id="path4338"
           d="m 1075.0878,317.66571 c 14.8369,-3.41959 17.9304,0.0297 27.0468,0.28726 8.2791,-0.16205 11.9361,-3.6399 24.8372,-0.48614 0.9345,0.11462 1.6055,0.36101 1.37,1.06066 -0.091,0.76813 0.2157,1.97271 -0.3978,2.16552 -1.8688,0.70525 -2.4975,7.10948 -3.7565,8.08753 -2.2738,2.86846 -4.6075,3.09686 -6.9385,3.44715 -7.3276,0.12126 -8.6036,-1.90079 -10.474,-3.71231 -1.0317,-1.57905 -1.9394,-3.19532 -2.3865,-4.94975 -0.1172,-1.55819 -1.3318,-1.90751 -2.2097,-1.87825 -2.0113,-0.19187 -2.2029,0.70144 -2.6958,2.32019 -0.6873,1.99405 -1.7084,4.00201 -3.8007,6.0546 -2.1381,1.74134 -4.8447,2.5894 -8.2201,2.38649 -4.9808,-0.32424 -7.5113,-2.18418 -8.1318,-3.99958 -1.8896,-3.38043 -1.3802,-6.45777 -4.1542,-8.13173 z"
           style="fill:#060d05;fill-opacity:1;fill-rule:evenodd;stroke:#000000;stroke-width:0.2;stroke-linecap:butt;stroke-linejoin:miter;stroke-miterlimit:4;stroke-dasharray:none;stroke-opacity:1" />
        <path
           sodipodi:nodetypes="cccccc"
           inkscape:connector-curvature="0"
           id="path4340"
           d="m 1078.9327,319.94171 c 1.7035,-2.70274 5.6341,-2.52342 9.2587,-2.74004 3.9508,0.14232 10.9865,0.45875 10.4961,4.86136 -1.0518,4.51377 -3.2069,7.62322 -6.8501,8.83883 -2.8446,0.27391 -5.0268,1.38009 -10.0321,-1.06066 -1.219,-1.38207 -3.3959,-4.31538 -2.8726,-9.89949 z"
           style="fill:#23481d;fill-opacity:1;fill-rule:evenodd;stroke:#000000;stroke-width:0.1;stroke-linecap:butt;stroke-linejoin:miter;stroke-miterlimit:4;stroke-dasharray:none;stroke-opacity:1" />
        <path
           style="fill:#23481d;fill-opacity:1;fill-rule:evenodd;stroke:#000000;stroke-width:0.1;stroke-linecap:butt;stroke-linejoin:miter;stroke-miterlimit:4;stroke-dasharray:none;stroke-opacity:1"
           d="m 1124.9133,320.03546 c -1.7035,-2.70274 -5.5403,-2.67967 -9.1649,-2.89629 -3.9508,0.14232 -10.9865,0.45875 -10.4961,4.86136 1.0518,4.51377 3.2069,7.62322 6.8501,8.83883 2.3271,0.42176 5.0159,1.38321 10.0321,-1.06066 1.3753,-1.56957 3.1771,-4.50288 2.7788,-9.74324 z"
           id="path4342"
           inkscape:connector-curvature="0"
           sodipodi:nodetypes="cccccc" />
        <path
           inkscape:connector-curvature="0"
           id="path4344"
           d="m 1088.215,317.55931 c -0.9059,0.0541 -1.8299,0.0838 -2.7318,0.14321 9.5865,2.76462 9.6046,3.89054 10.5419,9.36319 0.9218,-1.34484 1.6037,-2.99466 2.0562,-4.93679 0.461,-4.13842 -6.1525,-4.43583 -9.8663,-4.56961 z"
           style="fill:#438b37;fill-opacity:1;fill-rule:evenodd;stroke:#000000;stroke-width:0.0939992;stroke-linecap:butt;stroke-linejoin:miter;stroke-miterlimit:4;stroke-dasharray:none;stroke-opacity:1" />
        <path
           sodipodi:nodetypes="ccccc"
           style="fill:#438b37;fill-opacity:1;fill-rule:evenodd;stroke:#000000;stroke-width:0.0939992;stroke-linecap:butt;stroke-linejoin:miter;stroke-miterlimit:4;stroke-dasharray:none;stroke-opacity:1"
           d="m 1114.7238,317.66226 c -0.9059,0.0541 -1.1093,0.23822 -2.0112,0.29763 4.2333,1.42631 8.3693,4.40527 10.5419,9.36319 0.9218,-1.34484 0.8831,-3.14908 1.3356,-5.09121 0.461,-4.13842 -6.1525,-4.43583 -9.8663,-4.56961 z"
           id="path4346"
           inkscape:connector-curvature="0" />
      </g>
      <path
         sodipodi:nodetypes="cccc"
         inkscape:connector-curvature="0"
         id="path4217-4"
         d="m 396.375,494.91736 c -11.06497,-0.60996 -20.3324,1.29869 -26.75,6 11.81644,-4.71622 21.06293,-4.04252 30.25,-3.5 z"
         style="fill:#ececec;fill-opacity:1;fill-rule:evenodd;stroke:none;stroke-width:1px;stroke-linecap:butt;stroke-linejoin:miter;stroke-opacity:1" />
      <path
         sodipodi:nodetypes="ccccccccccccccccccc"
         inkscape:connector-curvature="0"
         id="path4191"
         d="m 370.70073,481.55025 c 8.87869,9.98318 16.98451,20.62883 28.99138,27.93072 4.94851,5.32398 9.17767,11.24741 11.31371,18.91511 l 0,10.78338 c 1.50542,4.71404 3.71252,9.42809 3.0052,14.14213 0.40131,3.8312 0.7071,9.01561 0.7071,9.01561 1.94915,2.96722 1.26781,5.22039 1.23744,7.6014 l -0.70711,15.90991 c 0.53383,7.8562 1.2832,15.98182 1e-5,21.56675 l 1.59099,4.94975 1.94454,-9.19239 c 0.49722,-7.20207 -0.50933,-14.61896 3.00521,-21.38998 1.22033,5.57321 0.85729,14.31317 1.23743,21.56676 1.00747,-9.71861 2.4311,-14.85945 3.00521,-29.34493 0.16422,3.33121 0.83765,5.38943 1.94454,6.36396 -0.82669,-14.73355 0.8567,-26.32952 1.76777,-38.89088 -4.03866,-12.01854 -2.1214,-17.0885 -3.18198,-25.63262 -4.02384,-10.75381 -10.48921,-17.23493 -16.26346,-24.92551 -13.03875,-4.88943 -26.09727,-9.5613 -39.59798,-9.36917 z"
         style="fill:#ececec;fill-opacity:1;fill-rule:evenodd;stroke:none;stroke-width:1px;stroke-linecap:butt;stroke-linejoin:miter;stroke-opacity:1" />
      <path
         sodipodi:nodetypes="cccccccccccccccc"
         inkscape:connector-curvature="0"
         id="path4193"
         d="m 339.41126,488.44455 c 1.71376,3.7531 2.22447,8.22088 -0.70711,11.13693 -7.60261,9.12363 -8.96154,13.70641 -11.66726,19.26866 0.10123,8.184 -1.47922,15.69534 3.0052,25.63262 1.49407,8.43867 2.50885,18.65989 7.42462,20.68287 -1.03217,5.40189 -3.47627,11.00698 -5.48008,13.61181 l -1.23743,0.17677 c -1.50229,12.08762 1.26733,16.85197 2.82842,23.68808 -7.85835,-6.57626 -9.13695,-15.64539 -9.0156,-25.45584 l 0.7071,-12.9047 c -2.97023,5.99747 -3.77759,18.48358 -4.94975,29.87526 -2.81595,-5.01711 -5.13404,-15.67861 0,-31.99658 -0.47596,-4.2707 -2.34144,-6.31818 -0.7071,-13.96536 -1.59793,-8.83189 -4.50015,-16.3595 -2.12132,-29.16816 0.74311,-3.8015 -0.17841,-5.52223 2.29809,-11.49048 3.96497,-6.7074 8.1695,-16.95447 19.62222,-19.09188 z"
         style="fill:#ececec;fill-opacity:1;fill-rule:evenodd;stroke:none;stroke-width:1px;stroke-linecap:butt;stroke-linejoin:miter;stroke-opacity:1" />
      <path
         sodipodi:nodetypes="ccccc"
         inkscape:connector-curvature="0"
         id="path4215"
         d="m 374.58982,561.98365 c -3.95236,11.11439 -6.90428,16.41349 -4.5962,38.18377 -4.44003,-9.70093 -2.95162,-21.4776 -3.88908,-27.40039 -1.10737,-1.85332 -1.83448,-6.36839 -2.47488,-11.49049 2.47822,0.34254 3.58814,0.80946 10.96016,0.70711 z"
         style="fill:#ececec;fill-opacity:1;fill-rule:evenodd;stroke:none;stroke-width:1px;stroke-linecap:butt;stroke-linejoin:miter;stroke-opacity:1" />
      <path
         sodipodi:nodetypes="cccccccccc"
         inkscape:connector-curvature="0"
         id="path4171"
         d="m 354.75,555.42049 c 2.55757,-1.22019 6.58773,-2.18761 9.91491,-2.5101 0.94609,0.55187 4.37939,1.17533 4.6094,1.252 0.2657,0.30274 4.07238,-1.68077 4.8333,-1.65451 4.64881,0.73467 5.66791,1.40716 7.9214,2.17796 0.0544,0.5171 0.22412,0.82547 -0.59044,0.73433 -2.30959,-1.44245 -4.8855,-1.77682 -7.48627,-2.00776 -1.90226,0.44283 -3.11065,1.43625 -4.11981,2.1114 -1.79241,-0.35105 -3.57705,-0.59398 -4.72831,-1.29562 -4.27002,-0.17782 -7.09508,0.65974 -10.35418,1.1923 z"
         style="fill:#000000;fill-opacity:1;fill-rule:evenodd;stroke:none;stroke-width:1px;stroke-linecap:round;stroke-linejoin:round;stroke-opacity:1" />
      <path
         sodipodi:nodetypes="ccccccccccc"
         inkscape:connector-curvature="0"
         id="path4213"
         d="m 357.79603,537.76524 c 7.15962,1.88626 13.935,2.23557 20.15255,0.35356 11.11703,2.36697 11.48357,10.10919 12.55114,17.50089 -1.00812,21.72555 -0.53742,38.52165 -0.17678,55.68466 -1.0923,-2.81788 -2.06062,-7.15023 -3.53553,-10.78338 -0.8207,-17.15268 -0.81781,-45.11482 -4.41942,-49.3207 -2.71613,-7.79786 -25.08539,-7.99189 -28.10749,0.70711 -6.11262,14.15778 -4.24264,36.29815 -6.36396,54.44722 -1.8554,7.31735 -2.16334,6.12368 -3.18198,8.83884 0.15106,-19.0201 1.69786,-38.73807 0.17677,-56.9221 1.84608,-10.61304 4.9788,-19.24663 12.9047,-20.5061 z"
         style="fill:#ececec;fill-opacity:1;fill-rule:evenodd;stroke:none;stroke-width:1px;stroke-linecap:round;stroke-linejoin:round;stroke-opacity:1" />
      <g
         transform="matrix(-0.52029524,0,0,0.38893997,1462.3769,375.10614)"
         id="g4781">
        <path
           sodipodi:nodetypes="ccsccccccccccccc"
           inkscape:connector-curvature="0"
           id="path4710"
           d="m 2114.5113,409.47298 c -1.9439,2.15579 -5.2606,3.04353 -5.2606,3.04353 -2.2322,-0.27257 -2.0661,0.16611 -2.9575,0.29116 -1.759,0.24675 -5.2965,-2.58839 -5.2965,-2.58839 0,0 -1.015,-0.91779 -3.9667,-0.27193 -6.1912,2.09199 -9.3153,5.1881 -6.5841,7.3749 7.8007,5.89621 6.8398,2.29524 6.869,2.24449 3.6271,-1.13655 4.3753,-0.80754 7.1781,0.60254 3.7582,0.47413 7.4352,0.84268 9.3755,-1.04464 l 2.8929,-0.80028 2.7061,-0.17729 3.8284,-3.29282 0.7369,-5.37803 -2.3786,-1.10221 -1.5097,-1.01554 c -2.2803,-0.15592 -5.6332,2.11451 -5.6332,2.11451 z"
           style="fill:#414141;fill-opacity:0.35119048;stroke:none;stroke-linecap:round;stroke-linejoin:round;stroke-opacity:1" />
        <path
           sodipodi:nodetypes="cccccccc"
           inkscape:connector-curvature="0"
           id="path4712"
           d="m 2111.0894,376.32538 c 1.2369,6.62898 4.5039,13.21217 6.3511,17.05444 4.6283,5.39032 5.5596,9.78462 6.5904,14.20574 1.8135,5.7378 -3.1386,10.2593 -3.1386,10.2593 -0.8216,0.27775 -1.643,0.55397 -2.2364,-0.32766 5.2292,-2.72149 5.8324,-7.98785 4.4633,-10.42924 -0.096,-2.39354 -2.9671,-11.3733 -6.2274,-13.11134 -2.8576,-5.70802 -4.2951,-12.79658 -5.8024,-17.65124 z"
           style="fill:#000000;fill-opacity:1;stroke:#000000;stroke-width:0.35608202;stroke-linecap:round;stroke-linejoin:round;stroke-opacity:1" />
        <path
           inkscape:connector-curvature="0"
           id="path4714"
           d="m 2118.3156,411.75773 c 0,0 -9.8741,2.80019 -7.0325,5.68699 2.8415,2.8868 3.5873,-0.19993 4.3419,-0.45405 0.7546,-0.25412 5.5869,-4.99009 2.6906,-5.23294 z"
           style="fill:#000000;fill-opacity:1;stroke:#000000;stroke-width:0.35608202;stroke-linecap:round;stroke-linejoin:round;stroke-opacity:1" />
        <path
           sodipodi:nodetypes="cczcc"
           inkscape:connector-curvature="0"
           id="path4716"
           d="m 2098.6043,412.9846 c 0,0 8.1664,3.12643 6.1489,4.47979 -2.0174,1.35337 -3.0859,0.72815 -3.881,0.75432 -0.7951,0.0262 -3.0018,1.0604 -4.0188,-0.38544 -1.017,-1.44584 -1.9117,-3.94077 1.7509,-4.84867 z"
           style="fill:#000000;fill-opacity:1;stroke:#000000;stroke-width:0.31783426;stroke-linecap:round;stroke-linejoin:round;stroke-opacity:1" />
        <path
           sodipodi:nodetypes="cccccccccccc"
           inkscape:connector-curvature="0"
           id="path4722"
           d="m 2091.5471,406.61581 1.3156,-1.46796 c -0.2061,-1.43602 1.1178,-2.5892 -0.8292,-4.07291 -0.923,0.24264 -2.0808,-0.0963 -2.7039,0.88962 -4.1978,1.35584 -3.3942,3.38866 -5.3359,4.73753 -0.4262,0.89021 -0.7586,1.86191 0.1379,3.90231 -0.1536,2.81129 1.2244,4.6587 2.3497,6.66516 0.5267,0.69974 1.052,0.93189 1.5756,0.6246 l 1.0679,-0.69572 -1.1435,-3.39562 1.6216,-4.85195 z"
           style="fill:#414141;fill-opacity:0.29166667;stroke:none;stroke-linecap:round;stroke-linejoin:round;stroke-opacity:1" />
        <path
           sodipodi:nodetypes="cssscsccsc"
           inkscape:connector-curvature="0"
           id="path4718"
           d="m 2091.8887,405.26513 c -1.3195,1.24204 -2.8556,3.62161 -3.3536,5.04404 -0.5343,1.52598 -0.5656,5.70415 0.7764,6.73712 1.5228,1.17214 3.5975,2.69722 4.4489,3.03657 1.059,0.42212 3.7732,0.42476 3.7732,0.42476 0,0 0.2489,-0.94606 -1.01,-0.94217 -1.259,0.004 -2.9729,-0.63072 -2.9729,-0.63072 0,0 -5.3075,-1.85946 -4.8144,-5.26014 0.4931,-3.40068 1.1433,-5.26938 2.5237,-6.72143 1.3803,-1.45205 0.6287,-1.68803 0.6287,-1.68803 z"
           style="fill:#000000;fill-opacity:1;stroke:#000000;stroke-width:0.35608202;stroke-linecap:round;stroke-linejoin:round;stroke-opacity:1" />
        <path
           style="fill:#f1d2bb;fill-opacity:1;stroke:none;stroke-linecap:round;stroke-linejoin:round;stroke-opacity:1"
           d="m 2116.1733,407.22296 c 0,0 -7.7277,1.84605 -5.7946,-2.72433 1.933,-4.57038 0.6143,-7.82209 5.2949,-5.66467 4.6806,2.15742 0.4997,8.389 0.4997,8.389 z"
           id="path4733"
           inkscape:connector-curvature="0" />
      </g>
      <path
         id="path4173"
         d="m 416.16992,392.35938 c -1.70082,0.69837 -23.53456,9.75033 -26.41992,16.00195 -3,6.5 -14.75,27 -11.75,33.75 4.23044,9.51921 -8.75626,26.93273 -1.99414,27.83398 -0.31206,8.91486 1.11398,18.5015 8.24414,20.66602 10.39179,3.15465 13.57357,35.54625 20.67383,43.03906 5.47141,5.77391 16.32606,18.18803 23.54492,23.04102 0.40635,-5.0939 0.90286,-10.07663 1.27539,-15.21289 -1.44223,-4.29189 -2.11725,-7.69124 -2.44726,-10.68555 0.93094,-0.20825 1.87674,-0.42541 2.80078,-0.62891 0,0 15.3789,-5.83288 15.3789,-7.07031 0,-1.23744 -0.35351,-4.41992 -0.35351,-4.41992 l 4.24414,3.71094 c 0,0 16.49204,-14.39724 19.09179,-27.22266 2.65166,-13.08148 -4.95117,-31.82031 -4.95117,-31.82031 l -7.24804,3.35937 6.36523,-7.77929 -5.48047,-14.67188 c 0,0 -0.2138,-0.24453 -0.4043,-0.45898 -0.11704,-0.12881 -0.26335,-0.27921 -0.43359,-0.44727 -0.0972,-0.0957 -0.18904,-0.19053 -0.30273,-0.29492 -0.0726,-0.0666 -0.1513,-0.13397 -0.23047,-0.20313 -0.24813,-0.21671 -0.51626,-0.4409 -0.82617,-0.66797 -4.2e-4,-3e-4 -0.002,3.1e-4 -0.002,0 -0.3093,-0.22656 -0.66015,-0.44947 -1.02734,-0.66406 -0.13517,-0.0789 -0.27139,-0.15717 -0.41406,-0.23242 -0.0869,-0.0458 -0.17214,-0.0926 -0.26172,-0.13672 -0.27283,-0.13433 -0.55421,-0.26305 -0.85157,-0.37695 -0.2978,-0.11408 -0.61233,-0.21038 -0.93359,-0.29688 -0.089,-0.024 -0.18076,-0.043 -0.27148,-0.0645 -0.25097,-0.0595 -0.50754,-0.11001 -0.77149,-0.14844 -0.0922,-0.0134 -0.1836,-0.0285 -0.27734,-0.0391 -0.35752,-0.0404 -0.72435,-0.066 -1.10352,-0.0605 -0.41272,0.006 -0.83853,0.0417 -1.27539,0.11133 -0.21841,0.0349 -0.43991,0.0783 -0.66406,0.13086 -0.44777,0.1051 -0.90748,0.24653 -1.37695,0.42969 -0.4701,0.1834 -0.95112,0.4083 -1.44141,0.67969 -0.24514,0.13569 -0.49229,0.28385 -0.74219,0.44335 -3.20563,2.04616 -12.02322,4.53706 -21.63672,6.82813 -4.84705,-7.65141 -9.67212,-15.37495 -15.07812,-21.34961 -3.2e-4,-3.6e-4 3.2e-4,-0.002 0,-0.002 -0.77234,-0.85355 -1.55561,-1.67043 -2.35352,-2.44727 1.77003,-3.54376 8.57309,-5.81011 13.43555,-12.72851 -1.08994,9.19239 -4.28738,18.38378 -1.06055,27.57617 3.20693,-6.68302 7.13381,-11.34612 8.13086,-24.2168 -0.71758,-2.32899 -1.43484,-4.55237 -2.15234,-6.67773 -0.60157,-1.78318 -1.20311,-3.47878 -1.80469,-5.11328 -0.12336,-0.33482 -0.24773,-0.68137 -0.37109,-1.00977 -0.0831,-0.2216 -0.16685,-0.43368 -0.25,-0.65234 -0.29821,-0.78335 -0.59632,-1.55754 -0.89453,-2.30274 -0.009,-0.0231 -0.0181,-0.0453 -0.0273,-0.0684 -0.0167,-0.0418 -0.034,-0.0794 -0.0508,-0.12109 -0.34551,-0.85954 -0.68964,-1.69663 -1.03515,-2.50391 -0.005,-0.0105 -0.009,-0.0207 -0.0137,-0.0312 -0.007,-0.0168 -0.0143,-0.032 -0.0215,-0.0488 -0.34817,-0.81167 -0.69674,-1.59601 -1.04492,-2.35351 -0.0271,-0.059 -0.053,-0.11717 -0.0801,-0.17578 -0.33265,-0.71964 -0.66538,-1.41288 -0.99805,-2.08203 -0.0189,-0.038 -0.0378,-0.0755 -0.0566,-0.11328 z"
         style="fill:#000000;fill-opacity:0.30051814;fill-rule:evenodd;stroke:none;stroke-width:1px;stroke-linecap:butt;stroke-linejoin:miter;stroke-opacity:0.30196078"
         inkscape:connector-curvature="0" />
      <path
         sodipodi:nodetypes="csccsc"
         inkscape:connector-curvature="0"
         id="path4197"
         d="m 331.25,497.3622 c -8,23.25 -10.75,15 -9,29.25 1.75,14.25 0.5,26.25 0.5,26.25 0.99276,-2.65651 2.07263,-5.03424 2.5,-9.5 0,0 -2.25,-23.25 -1.5,-24.75 0.75,-1.5 10.25,-20.75 7.5,-21.25 z"
         style="fill:#000000;fill-opacity:0.06976743;fill-rule:evenodd;stroke:none;stroke-width:1px;stroke-linecap:butt;stroke-linejoin:miter;stroke-opacity:1" />
      <path
         inkscape:connector-curvature="0"
         id="path4199"
         d="m 328.25,553.6122 c 0,0 -1.5,4.5 -0.75,8.75 0.75,4.25 0.75,-8.75 0.75,-8.75 z"
         style="fill:#000000;fill-opacity:0.06976743;fill-rule:evenodd;stroke:none;stroke-width:1px;stroke-linecap:butt;stroke-linejoin:miter;stroke-opacity:1" />
      <path
         sodipodi:nodetypes="cssc"
         inkscape:connector-curvature="0"
         id="path4201"
         d="m 328.5,571.8622 c -0.2075,-1.03748 -2.26255,2.43727 -1.5,6 0.4824,2.25384 0.16325,11.15252 0.75,12 1,1.44438 -1,-15.11515 0.75,-18 z"
         style="fill:#000000;fill-opacity:0.06976743;fill-rule:evenodd;stroke:none;stroke-width:1px;stroke-linecap:butt;stroke-linejoin:miter;stroke-opacity:1" />
      <path
         sodipodi:nodetypes="cssssc"
         inkscape:connector-curvature="0"
         id="path4203"
         d="m 321.25,565.6122 c -1.13422,0.82488 -3.78064,19.02249 -2.5,22.75 0.52501,1.52812 0.70667,-2.74332 1.30895,-7.44585 0.33229,-2.59445 0.19208,-5.57906 0.57081,-8.14264 0.61402,-4.15617 1.72844,-7.42162 1.98766,-7.73473 0.84211,-1.01721 -1.46246,-0.0921 -1.36742,0.57322 z"
         style="fill:#000000;fill-opacity:0.07558139;stroke:none;stroke-linecap:round;stroke-linejoin:round;stroke-opacity:1" />
      <path
         sodipodi:nodetypes="cscsc"
         inkscape:connector-curvature="0"
         id="path4205"
         d="m 407.25,493.3622 c 0,0 15.75,21.5 13.25,29.75 -2.5,8.25 -3.25,8.25 -3.25,8.25 0,0 2.32613,-7.12483 -0.39722,-15.46203 -3.25676,-9.97016 -9.06909,-21.20374 -9.60278,-22.53797 z"
         style="fill:#000000;fill-opacity:0.07558139;stroke:none;stroke-linecap:round;stroke-linejoin:round;stroke-opacity:1" />
      <path
         inkscape:connector-curvature="0"
         id="path4207"
         d="m 398.25,490.1122 8.25,18.5 -9.75,-17.75 -0.75,-3.5 z"
         style="fill:#000000;fill-opacity:0.07558139;stroke:none;stroke-linecap:round;stroke-linejoin:round;stroke-opacity:1" />
      <path
         inkscape:connector-curvature="0"
         id="path4209"
         d="m 381.5,488.3622 18.25,18.75 -2,-5.5 c 0,0 -15,-15 -16.25,-13.25 z"
         style="fill:#000000;fill-opacity:0.07558139;stroke:none;stroke-linecap:round;stroke-linejoin:round;stroke-opacity:1" />
      <path
         inkscape:connector-curvature="0"
         id="path4212"
         d="m 425.5,539.6122 c 0,0 3,6.5 2.5,8.75 -0.5,2.25 -0.5,7.25 -0.5,7.25 z"
         style="fill:#000000;fill-opacity:0.07558139;stroke:none;stroke-linecap:round;stroke-linejoin:round;stroke-opacity:1" />
      <path
         sodipodi:nodetypes="cscsc"
         inkscape:connector-curvature="0"
         id="path4214"
         d="m 415,541.6122 c 0,0 5.25,13 2.25,16.5 -3,3.5 1.55676,-0.80936 1.55676,-0.80936 0,0 0.30713,-2.9475 -0.40907,-6.14932 -0.93705,-4.18914 -2.26411,-9.11623 -3.39769,-9.54132 z"
         style="fill:#000000;fill-opacity:0.07558139;stroke:none;stroke-linecap:round;stroke-linejoin:round;stroke-opacity:1" />
      <path
         inkscape:connector-curvature="0"
         id="path4216"
         d="m 419.75,571.1122 c 0,0 -2.5,11.5 -2.5,14.5 0,3 2.75,-5.25 2.75,-5.25 0,0 1.75,-10.5 -0.25,-9.25 z"
         style="fill:#000000;fill-opacity:0.07558139;stroke:none;stroke-linecap:round;stroke-linejoin:round;stroke-opacity:1" />
      <path
         sodipodi:nodetypes="ccccccc"
         inkscape:connector-curvature="0"
         id="path4218"
         d="m 417,591.8622 0.26052,6.89244 L 416,608.1122 c 0.56053,-1.83648 0.89416,-4.03601 2,-5 -0.25861,-2.56526 0.049,-5.04963 0.61257,-7.49743 0.34717,-2.50086 -0.18241,-5.00171 -0.36257,-7.50257 -0.67749,0.83269 -1.1602,1.97701 -1.25,3.75 z"
         style="fill:#000000;fill-opacity:0.07558139;stroke:none;stroke-linecap:round;stroke-linejoin:round;stroke-opacity:1" />
      <path
         inkscape:connector-curvature="0"
         id="path4220"
         d="m 424,573.8622 c 0,0 0.75,18 -0.5,21.5 -1.25,3.5 0,-7 0,-7 z"
         style="fill:#000000;fill-opacity:0.07558139;stroke:none;stroke-linecap:round;stroke-linejoin:round;stroke-opacity:1" />
      <path
         sodipodi:nodetypes="cccc"
         inkscape:connector-curvature="0"
         id="path4222"
         d="m 424.5,562.1122 2.75,14.25 c -1.83412,-5.83284 -4.60904,-11.07769 -5.5,-17.5 0.8526,0.50672 1.67115,0.70698 2.75,3.25 z"
         style="fill:#000000;fill-opacity:0.07558139;stroke:none;stroke-linecap:round;stroke-linejoin:round;stroke-opacity:1" />
      <path
         sodipodi:nodetypes="cczc"
         inkscape:connector-curvature="0"
         id="path4224"
         d="m 359.25,541.3622 c -2.42734,3.6325 -6.18739,5.59909 -10,7.5 0,0 5.80075,-1.02625 7.5,-2.5 1.69925,-1.47375 2.5,-5 2.5,-5 z"
         style="fill:#000000;fill-opacity:0.07558139;stroke:none;stroke-linecap:round;stroke-linejoin:round;stroke-opacity:1" />
      <path
         sodipodi:nodetypes="cccc"
         inkscape:connector-curvature="0"
         id="path4226"
         d="m 381.75,542.1122 c 1.33345,2.41659 3.49496,4.28114 5.5,6.25 -1.40612,-0.95581 -2.6563,-2.69134 -4.21837,-2.86742 0.26131,-0.59201 -0.50708,-1.9849 -1.28163,-3.38258 z"
         style="fill:#000000;fill-opacity:0.07558139;stroke:none;stroke-linecap:round;stroke-linejoin:round;stroke-opacity:1" />
      <path
         sodipodi:nodetypes="cccc"
         inkscape:connector-curvature="0"
         id="path4228"
         d="m 365,540.6122 -0.75,5 c -0.40809,-4.83389 -1.1235,-3.67513 -1.75,-4.25 0.83333,-1.38899 1.66667,-1.35592 2.5,-0.75 z"
         style="fill:#000000;fill-opacity:0.07558139;stroke:none;stroke-linecap:round;stroke-linejoin:round;stroke-opacity:1" />
      <path
         sodipodi:nodetypes="cccc"
         inkscape:connector-curvature="0"
         id="path4230"
         d="m 373.75,540.1122 c -1.79149,2.10331 0.32335,3.5816 1.25,5.25 -1.2361,-1.19453 -2.40773,-2.9048 -3.75,-3.25 0.4254,-1.80888 1.51022,-1.77139 2.5,-2 z"
         style="fill:#000000;fill-opacity:0.07558139;stroke:none;stroke-linecap:round;stroke-linejoin:round;stroke-opacity:1" />
      <path
         sodipodi:nodetypes="zccz"
         inkscape:connector-curvature="0"
         id="path4232"
         d="m 348.26517,556.49608 c -1.511,2.11053 -1.76517,10.11612 -1.76517,10.11612 1.67485,-4.40007 1.8379,-9.43667 5.5,-13 0,0 -2.22384,0.77335 -3.73483,2.88388 z"
         style="fill:#000000;fill-opacity:0.07558139;stroke:none;stroke-linecap:round;stroke-linejoin:round;stroke-opacity:1" />
      <path
         sodipodi:nodetypes="cccc"
         inkscape:connector-curvature="0"
         id="path4234"
         d="m 347.5,573.3622 c -0.64112,11.45924 -0.72936,23.83995 -2,34.25 0.86724,-1.05197 1.93253,-1.62859 2.25,-4 -1.68273,-9.65683 -0.18931,-20.16063 -0.25,-30.25 z"
         style="fill:#000000;fill-opacity:0.07558139;stroke:none;stroke-linecap:round;stroke-linejoin:round;stroke-opacity:1" />
      <path
         sodipodi:nodetypes="cccc"
         inkscape:connector-curvature="0"
         id="path4236"
         d="m 389.25,571.1122 c -1.59886,6.22571 -0.47265,12.81476 -0.5,19.25 l 1,-15.5 z"
         style="fill:#000000;fill-opacity:0.07558139;stroke:none;stroke-linecap:round;stroke-linejoin:round;stroke-opacity:1" />
      <path
         sodipodi:nodetypes="cccc"
         inkscape:connector-curvature="0"
         id="path4238"
         d="m 386.75,589.8622 c 2.05954,7.48613 2.24543,12.78633 3,18.75 -0.26072,-4.36715 -0.56037,-8.7966 -0.25,-12.25 -0.42545,-3.1491 -1.80222,-4.39557 -2.75,-6.5 z"
         style="fill:#000000;fill-opacity:0.07558139;stroke:none;stroke-linecap:round;stroke-linejoin:round;stroke-opacity:1" />
      <path
         sodipodi:nodetypes="cccc"
         inkscape:connector-curvature="0"
         id="path4240"
         d="m 386.5,555.8622 c 0.84281,4.463 0.68586,8.77218 0,13 0.88034,-2.79976 2.35084,-5.17797 2.5,-8.5 z"
         style="fill:#000000;fill-opacity:0.07558139;stroke:none;stroke-linecap:round;stroke-linejoin:round;stroke-opacity:1" />
      <path
         sodipodi:nodetypes="cccc"
         inkscape:connector-curvature="0"
         id="path4242"
         d="m 366,562.6122 c 0.66906,2.60905 -0.35531,4.71007 -0.75,7 l 2,-4 c 0.17382,-1.84356 -0.64459,-2.26963 -1.25,-3 z"
         style="fill:#000000;fill-opacity:0.07558139;stroke:none;stroke-linecap:round;stroke-linejoin:round;stroke-opacity:1" />
      <path
         sodipodi:nodetypes="cccc"
         inkscape:connector-curvature="0"
         id="path4244"
         d="m 370.25,567.6122 c -0.75145,5.91066 -2.97668,11.76809 -3.75,13 0.52193,1.6184 1.38228,1.20634 2.25,0.75 0.9822,-4.58333 1.19871,-9.16667 1.5,-13.75 z"
         style="fill:#000000;fill-opacity:0.07558139;stroke:none;stroke-linecap:round;stroke-linejoin:round;stroke-opacity:1" />
      <path
         sodipodi:nodetypes="cccc"
         inkscape:connector-curvature="0"
         id="path4246"
         d="m 368.25,585.8622 c -0.29084,3.75 0.53379,7.5 1,11.25 -0.7616,-2.907 -2.13171,-5.3069 -2.25,-8.75 0.0922,-1.28751 0.56982,-2.03558 1.25,-2.5 z"
         style="fill:#000000;fill-opacity:0.07558139;stroke:none;stroke-linecap:round;stroke-linejoin:round;stroke-opacity:1" />
      <path
         sodipodi:nodetypes="cccc"
         inkscape:connector-curvature="0"
         id="path4248"
         d="m 372.5,562.6122 c -0.73286,1.55841 -0.17329,3.33223 -0.25,5 -0.35309,-1.76626 -0.31488,-3.76076 -2,-4.75 0.68911,-0.63131 1.44306,-0.67911 2.25,-0.25 z"
         style="fill:#000000;fill-opacity:0.07558139;stroke:none;stroke-linecap:round;stroke-linejoin:round;stroke-opacity:1" />
      <path
         inkscape:connector-curvature="0"
         id="path4272"
         d="m 412.11328,385.54492 c -6.22433,2.40123 -37.30567,14.57142 -39.11328,19.31641 -2,5.25 -15.25,21.75 -14.5,28 0.0679,9.60607 -19.66724,32.0805 -23.63477,39.94336 -4.28431,14.41094 -9.73744,17.57229 -2.45117,23.76562 5.12498,4.35623 37.12223,32.82692 41.10938,42.91992 1.46774,6.1072 16.3811,11.89962 22.24414,18.38086 1.5267,1.68769 3.12298,5.27191 4.78125,9.86329 3.82179,-3.16008 7.15812,-6.48299 9.92578,-9.99415 1.07311,-3.45324 2.14167,-6.90415 3.14453,-10.33398 0.45963,1.97226 0.68849,3.94385 0.39258,5.91602 0.40131,3.8312 0.70703,9.01562 0.70703,9.01562 1.94915,2.96722 1.2667,5.22055 1.23633,7.60156 l -0.70703,15.90821 c 0.53383,7.8562 1.28319,15.98343 0,21.56836 l 1.59179,4.94921 1.94336,-9.19335 c 0.49722,-7.20209 -0.50868,-14.61766 3.00586,-21.38868 1.22033,5.57321 0.85814,14.31282 1.23828,21.56641 1.00747,-9.71861 2.4298,-14.86022 3.00391,-29.3457 0.16422,3.33121 0.83842,5.3907 1.94531,6.36523 -0.48866,-8.70909 -0.0952,-16.31388 0.49219,-23.67773 -7.21886,-4.85299 -18.07351,-17.26711 -23.54492,-23.04102 -7.10026,-7.49281 -10.28204,-39.88441 -20.67383,-43.03906 -0.24945,-0.0757 -0.49091,-0.16231 -0.72656,-0.25586 -0.0789,-0.0314 -0.15508,-0.0663 -0.23242,-0.0996 -0.13801,-0.0593 -0.27303,-0.12209 -0.40625,-0.1875 -0.34148,-0.16809 -0.66774,-0.35606 -0.97852,-0.5625 -0.0695,-0.046 -0.13508,-0.0967 -0.20313,-0.14453 -0.25567,-0.18047 -0.5013,-0.37265 -0.73632,-0.57813 -0.0679,-0.0592 -0.13882,-0.11455 -0.20508,-0.17578 -0.25189,-0.23343 -0.48859,-0.48495 -0.7168,-0.74609 -0.0881,-0.10056 -0.17515,-0.20215 -0.25976,-0.30664 -0.20526,-0.25384 -0.40411,-0.51534 -0.58985,-0.79102 -0.005,-0.008 -0.0103,-0.0156 -0.0156,-0.0234 -10e-4,-10e-4 -0.003,-0.002 -0.004,-0.004 l -0.002,-0.002 c -0.001,-0.002 -0.003,-0.004 -0.004,-0.006 -0.54735,-0.81881 -1.00749,-1.73156 -1.39648,-2.71485 -0.01,-0.0248 -0.0177,-0.0513 -0.0274,-0.0762 -0.18462,-0.47293 -0.35205,-0.96147 -0.5039,-1.46484 -0.004,-0.0147 -0.007,-0.0302 -0.0117,-0.0449 -0.15449,-0.51608 -0.29341,-1.04687 -0.41602,-1.58984 -6e-4,-0.003 -10e-4,-0.005 -0.002,-0.008 -0.0166,-0.0706 -0.0301,-0.14188 -0.0449,-0.21289 -0.005,-0.0235 -0.0106,-0.0468 -0.0156,-0.0703 -0.0969,-0.4526 -0.1848,-0.91161 -0.26172,-1.37891 -2.1e-4,-0.001 2.1e-4,-0.003 0,-0.004 -2.1e-4,-10e-4 2.2e-4,-0.003 0,-0.004 -0.092,-0.55988 -0.17085,-1.12852 -0.23632,-1.70508 -0.0202,-0.17327 -0.041,-0.34604 -0.0586,-0.51953 -0.0551,-0.55172 -0.10096,-1.10866 -0.13476,-1.66993 -0.002,-0.0391 -0.008,-0.0781 -0.01,-0.11718 -9.8e-4,-0.0169 -9.7e-4,-0.0339 -0.002,-0.0508 -0.004,-0.0743 -0.01,-0.14822 -0.0137,-0.22266 -7e-5,-10e-4 6e-5,-0.003 0,-0.004 -0.004,-0.0837 -0.006,-0.16646 -0.01,-0.25 -0.0172,-0.36987 -0.03,-0.73948 -0.0391,-1.11132 -0.003,-0.13433 -0.004,-0.26787 -0.006,-0.40235 -0.0141,-1.07055 -0.008,-2.13236 0.0254,-3.16211 -6.76212,-0.90125 6.22458,-18.31477 1.99414,-27.83398 -0.086,-0.1936 -0.15637,-0.4016 -0.21875,-0.61719 -0.0146,-0.0505 -0.0277,-0.10268 -0.041,-0.1543 -0.035,-0.13532 -0.0614,-0.27879 -0.0879,-0.42187 -0.0611,-0.331 -0.109,-0.6751 -0.12695,-1.04492 -0.0276,-0.56777 -0.006,-1.17809 0.0586,-1.82617 0.0412,-0.41261 0.1127,-0.85231 0.1875,-1.29297 0.0816,-0.48055 0.18486,-0.9787 0.30274,-1.48829 0.037,-0.15991 0.0651,-0.31213 0.10547,-0.4746 0.16983,-0.68456 0.3665,-1.38772 0.58984,-2.11133 0.0502,-0.1627 0.10947,-0.33175 0.16211,-0.4961 0.19026,-0.59397 0.39236,-1.1947 0.61133,-1.80664 0.0767,-0.21422 0.1585,-0.43052 0.23828,-0.64648 0.20302,-0.54957 0.41191,-1.10212 0.63281,-1.66016 0.10321,-0.26071 0.20788,-0.51932 0.31446,-0.78125 0.14519,-0.35687 0.29657,-0.71208 0.44726,-1.07031 0.50728,-1.20599 1.03197,-2.41523 1.58008,-3.61133 0.49388,-1.07775 0.99073,-2.11478 1.49219,-3.1543 0.67367,-1.39663 1.34223,-2.75787 1.97851,-4.02539 1.47656,-2.9414 2.77344,-5.4414 3.52344,-7.0664 0.18003,-0.39007 0.43387,-0.79201 0.75195,-1.20117 l 0.002,-0.002 c 0.15891,-0.20427 0.33368,-0.40917 0.52343,-0.61718 6e-4,-6.6e-4 10e-4,-10e-4 0.002,-0.002 0.27238,-0.29845 0.60169,-0.60373 0.93164,-0.9082 0.362,-0.33405 0.73184,-0.66906 1.15429,-1.00781 0.53455,-0.42858 1.11389,-0.86161 1.72852,-1.29297 0.002,-10e-4 0.004,-0.003 0.006,-0.004 0.003,-0.002 0.005,-0.004 0.008,-0.006 0.61439,-0.43081 1.26392,-0.86081 1.93946,-1.28906 0.006,-0.004 0.0118,-0.008 0.0176,-0.0117 0.24983,-0.15825 0.51898,-0.31331 0.77539,-0.4707 0.44399,-0.27255 0.8819,-0.54559 1.3418,-0.81445 1.4393,-0.8415 2.94464,-1.66183 4.44141,-2.43946 0.006,-0.003 0.0118,-0.005 0.0176,-0.008 0.005,-0.003 0.0105,-0.005 0.0156,-0.008 8e-4,-4.2e-4 0.001,-0.002 0.002,-0.002 0.0419,-0.0217 0.0812,-0.0389 0.12305,-0.0605 0.0239,-0.0119 0.0475,-0.0243 0.0723,-0.0371 1.44191,-0.74531 2.87305,-1.45476 4.2246,-2.09961 1.39774,-0.66697 2.70702,-1.26878 3.86329,-1.78711 0.004,-0.002 0.007,-0.003 0.01,-0.004 10e-4,-5.3e-4 0.003,-0.001 0.004,-0.002 0.0117,-0.005 0.0177,-0.008 0.0293,-0.0137 0.62305,-0.27913 1.04957,-0.45947 1.56835,-0.68555 0.45921,-0.2001 1.0034,-0.44225 1.36329,-0.5957 0.001,-5.1e-4 7.9e-4,-10e-4 0.002,-0.002 0.0842,-0.0359 0.0877,-0.0351 0.16601,-0.0684 0.61069,-0.25917 1.12794,-0.47647 1.31836,-0.55469 -1.34417,-2.68565 -2.68899,-5.00147 -4.0332,-6.81446 -0.002,-0.003 -0.004,-0.005 -0.006,-0.008 z"
         style="fill:#000000;fill-opacity:0.13989641;fill-rule:evenodd;stroke:none;stroke-width:1px;stroke-linecap:butt;stroke-linejoin:miter;stroke-opacity:1" />
    </g>
  </g>
</svg>
